<?xml version="1.0" standalone="no"?>
<!DOCTYPE svg PUBLIC "-//W3C//DTD SVG 20010904//EN"
 "http://www.w3.org/TR/2001/REC-SVG-20010904/DTD/svg10.dtd">
<svg version="1.0" xmlns="http://www.w3.org/2000/svg"
 width="464.000000pt" height="464.000000pt" viewBox="0 0 464.000000 464.000000"
 preserveAspectRatio="xMidYMid meet">
<metadata>
Created by potrace 1.14, written by Peter Selinger 2001-2017
</metadata>
<g transform="translate(0.000000,464.000000) scale(0.100000,-0.100000)"
fill="#000000" stroke="none">
<path d="M1262 4519 c-55 -11 -57 -26 -6 -35 47 -7 74 -26 105 -72 82 -122 95
-302 31 -442 -28 -63 -72 -116 -143 -174 -79 -66 -111 -118 -111 -185 -1 -58
20 -107 62 -149 74 -75 160 -87 340 -49 116 25 210 29 244 10 17 -9 14 -12
-20 -23 -21 -7 -57 -23 -79 -36 -54 -31 -167 -47 -300 -42 -96 4 -116 7 -160
31 -88 48 -111 104 -120 284 -7 149 -30 232 -81 291 -64 75 -136 97 -227 70
-53 -16 -107 -67 -107 -102 0 -14 2 -26 4 -26 2 0 25 9 50 21 56 24 93 19 148
-20 84 -60 114 -142 103 -281 -5 -52 -8 -122 -7 -155 l1 -60 -20 25 c-20 25
-34 54 -84 165 -44 101 -103 147 -177 140 -41 -4 -88 -26 -107 -49 -12 -14 -8
-16 32 -16 25 0 57 -4 71 -10 25 -9 86 -66 86 -81 0 -4 3 -16 7 -26 6 -15 0
-13 -28 8 -51 39 -89 56 -141 64 -62 9 -140 -10 -173 -42 -32 -33 -32 -45 1
-33 53 21 119 12 190 -25 132 -69 245 -173 300 -275 46 -87 79 -126 127 -154
112 -65 278 -70 448 -13 126 43 137 45 261 53 120 8 150 2 146 -29 -3 -21 -7
-22 -128 -23 -104 0 -145 -4 -220 -19 -3 0 -36 -10 -75 -22 -38 -12 -99 -24
-135 -26 -36 -3 -78 -10 -94 -16 -23 -9 -39 -8 -75 3 -25 9 -62 18 -81 21 -51
9 -123 31 -159 49 -89 46 -151 140 -151 229 0 45 -1 47 -20 37 -30 -16 -68
-80 -76 -127 -8 -50 16 -130 52 -173 l25 -29 -34 -6 c-63 -12 -182 -12 -230 1
-73 19 -130 58 -198 134 -35 39 -66 65 -69 59 -11 -16 7 -103 29 -147 55 -109
167 -173 301 -174 69 0 126 9 282 48 100 25 186 33 226 20 30 -10 28 -16 -21
-53 -23 -18 -61 -49 -85 -69 l-42 -37 -58 26 c-93 42 -213 53 -266 25 -20 -11
-20 -11 -1 -19 11 -4 43 -14 71 -23 28 -8 75 -31 104 -51 28 -19 57 -35 62
-35 6 0 5 -6 -2 -15 -8 -10 -21 -13 -33 -9 -12 4 -63 8 -114 10 -51 1 -109 5
-129 9 -116 18 -246 76 -283 126 -27 37 -40 30 -34 -18 6 -42 38 -97 79 -134
71 -63 123 -80 292 -95 46 -5 68 -10 60 -16 -26 -17 -92 -29 -157 -30 -56 -1
-79 5 -135 31 -73 35 -181 135 -226 209 -46 77 -65 45 -31 -52 37 -106 124
-204 221 -250 122 -57 289 -43 448 39 64 32 81 37 123 33 27 -3 52 -7 54 -10
9 -9 -62 -142 -88 -167 -23 -21 -29 -22 -61 -11 -21 7 -43 24 -53 41 -20 33
-33 38 -33 12 0 -26 35 -79 63 -98 33 -21 106 -21 148 0 48 25 98 70 142 129
37 49 57 62 63 41 2 -5 -20 -44 -49 -85 -83 -118 -185 -173 -310 -165 -60 4
-106 23 -291 121 -85 45 -172 56 -230 29 -20 -10 -41 -25 -46 -35 -8 -16 -2
-18 60 -22 59 -5 81 -12 140 -47 38 -22 101 -59 138 -81 90 -53 188 -81 280
-81 40 1 71 -3 68 -8 -8 -12 -170 -81 -191 -81 -9 0 -43 24 -76 53 -77 67
-129 96 -202 111 -56 12 -60 14 -72 51 -20 57 -43 67 -84 36 -19 -14 -24 -29
-25 -61 -1 -39 -4 -44 -31 -53 -36 -12 -85 -45 -85 -57 0 -14 75 -31 122 -28
35 3 46 -1 62 -20 11 -13 53 -49 93 -79 41 -30 73 -56 71 -58 -2 -2 -28 -5
-58 -6 -93 -5 -165 -32 -215 -83 -28 -29 -151 -189 -165 -216 -12 -22 -6 -70
8 -70 4 0 44 35 89 78 88 85 193 146 273 160 48 8 148 8 215 -1 22 -3 81 -11
130 -18 170 -22 374 5 561 76 155 59 266 86 278 67 7 -12 -25 -23 -148 -52
-106 -24 -155 -45 -223 -94 -55 -39 -68 -42 -247 -51 -126 -6 -178 -25 -222
-82 -16 -21 -49 -45 -81 -59 -118 -52 -153 -100 -189 -259 -13 -58 -30 -118
-38 -134 -20 -38 -63 -71 -83 -64 -11 4 -14 1 -11 -13 8 -42 106 -23 161 32
41 41 64 85 73 139 16 102 25 137 45 176 16 32 45 56 55 46 2 -1 -3 -16 -11
-31 -20 -37 -19 -52 6 -106 43 -96 133 -146 232 -131 4 0 7 10 7 21 0 11 -17
31 -44 50 -43 29 -76 67 -89 102 -12 34 51 -1 165 -91 l57 -45 -15 -35 c-21
-49 -59 -98 -105 -131 -37 -26 -56 -31 -174 -46 -79 -9 -138 -24 -163 -40 -35
-23 -22 -26 51 -13 60 11 71 10 136 -11 39 -12 73 -21 77 -20 4 1 12 -10 18
-24 20 -45 164 -202 276 -299 179 -156 487 -311 745 -376 179 -45 279 -56 505
-56 235 0 295 7 521 59 417 97 843 368 1125 716 91 112 132 178 227 361 164
316 230 581 231 924 0 101 -8 242 -18 290 -2 11 -7 43 -10 70 -19 146 -97 393
-175 560 -118 249 -321 519 -498 661 -26 22 -50 41 -53 44 -27 29 -176 141
-242 182 -275 171 -529 259 -883 307 -72 10 -463 7 -525 -3 -165 -29 -334 -82
-454 -142 -38 -19 -73 -33 -79 -31 -6 2 -12 30 -14 63 -10 161 -159 301 -291
273z m146 -58 c60 -42 122 -149 124 -213 2 -93 -39 -313 -72 -378 -22 -43 -47
-66 -124 -115 -73 -45 -83 -55 -101 -99 -12 -29 -13 -42 -2 -73 17 -52 75 -81
177 -88 41 -3 111 -8 155 -11 44 -4 104 -7 133 -7 54 1 64 7 162 92 13 12 33
21 44 19 15 -2 19 -10 19 -40 -1 -21 -2 -60 -2 -88 -1 -50 -1 -50 -35 -50 -18
0 -55 10 -82 22 -60 27 -155 28 -264 3 -101 -23 -201 -30 -244 -15 -72 23
-135 115 -136 195 0 47 29 99 74 135 62 48 147 143 170 189 87 170 61 401 -57
528 l-31 33 32 -9 c18 -5 45 -19 60 -30z m1257 -159 c209 -35 440 -103 590
-172 431 -200 797 -565 1006 -1005 45 -96 104 -252 113 -298 2 -12 9 -40 14
-62 6 -22 14 -56 17 -75 3 -19 10 -53 15 -76 25 -110 35 -460 18 -594 -28
-214 -71 -367 -161 -570 -127 -287 -298 -514 -547 -729 -205 -176 -487 -326
-763 -405 -112 -32 -266 -63 -360 -73 -93 -9 -355 -9 -432 0 -366 44 -686 173
-956 387 -60 47 -263 250 -277 277 -11 21 -9 24 38 46 l50 24 82 -84 c356
-364 810 -549 1331 -544 230 2 406 35 637 118 460 165 845 513 1059 957 86
178 145 358 166 509 3 27 8 56 10 65 16 86 21 313 10 452 -7 84 -28 201 -54
297 -111 410 -348 767 -684 1027 -214 166 -495 298 -747 351 -8 2 -35 8 -60
13 -41 10 -87 16 -190 28 -51 6 -309 6 -355 -1 -22 -3 -58 -7 -80 -10 -164
-21 -357 -79 -525 -156 -57 -26 -106 -47 -108 -45 -1 2 3 36 9 76 l12 72 116
55 c64 30 143 65 176 78 71 27 223 61 315 71 36 3 67 8 69 10 8 7 391 -5 446
-14z m-80 -166 c44 -5 90 -10 102 -12 121 -20 160 -28 238 -49 249 -67 456
-176 685 -360 140 -113 190 -165 308 -321 196 -259 297 -485 357 -799 31 -163
37 -462 11 -600 -2 -11 -7 -40 -11 -65 -23 -151 -111 -408 -191 -555 -333
-617 -963 -994 -1666 -996 -118 -1 -208 5 -268 17 -8 1 -19 3 -24 3 -10 1 -2
128 8 138 4 4 13 -3 22 -15 28 -41 104 -18 104 31 0 47 -48 69 -104 48 -22 -9
-25 -7 -31 20 -4 17 -4 46 0 66 l6 35 23 -21 c25 -23 68 -28 84 -9 47 60 -9
120 -86 94 -22 -7 -23 -6 -20 31 2 21 8 37 14 36 6 -1 23 -4 37 -7 52 -9 89
53 53 90 -17 16 -72 19 -81 4 -22 -36 -35 63 -15 116 10 24 12 25 28 11 34
-30 96 -22 108 15 13 42 -51 68 -107 44 -21 -9 -32 28 -23 74 6 30 9 31 44 26
50 -7 79 21 62 59 -13 29 -46 33 -79 10 -39 -27 -38 -1 5 149 5 19 16 30 31
33 41 6 60 23 67 58 6 32 13 39 78 69 47 21 88 50 121 84 47 49 52 52 100 52
95 0 220 -50 258 -104 20 -28 22 -44 24 -160 2 -161 6 -183 43 -234 42 -58
103 -90 215 -113 143 -28 206 -61 231 -119 22 -51 -3 -133 -51 -167 -14 -10
-36 -25 -47 -34 l-22 -16 27 -18 c61 -39 193 -6 270 69 21 21 49 61 62 89 25
53 26 74 10 196 -7 62 17 108 69 131 54 23 67 40 64 82 -1 23 5 44 18 61 12
14 29 47 39 72 l18 47 -31 24 c-26 21 -42 55 -47 99 -1 6 3 22 8 37 8 25 26
37 105 68 44 17 62 52 51 100 -5 20 -38 88 -74 151 -36 63 -88 159 -115 214
-61 124 -69 177 -40 281 33 120 33 118 -193 544 -27 52 -57 103 -66 114 -11
12 -16 40 -17 90 -3 135 -29 247 -70 295 -14 17 -67 53 -118 81 -51 29 -123
78 -161 111 -70 61 -111 77 -162 65 -44 -11 -123 -55 -147 -82 -20 -24 -23
-25 -75 -13 -69 15 -132 7 -167 -20 l-27 -22 -26 24 c-34 32 -98 52 -229 73
-85 13 -115 14 -148 5 -51 -14 -97 -59 -113 -110 -9 -32 -17 -40 -44 -45 -17
-3 -50 -22 -72 -42 -71 -63 -114 -77 -195 -62 -25 5 -97 10 -161 13 -138 5
-190 21 -212 67 -11 23 -13 38 -6 57 15 38 28 50 104 99 85 53 116 87 139 147
10 25 21 43 26 40 4 -3 55 17 112 44 92 43 255 103 313 115 108 23 230 46 275
51 30 4 56 8 57 8 5 5 240 -1 308 -7z m-1650 -167 c104 -56 142 -147 150 -353
4 -110 17 -168 53 -224 20 -31 87 -69 147 -82 54 -12 193 -15 265 -5 55 7 47
-3 -35 -43 -115 -57 -203 -69 -303 -42 -79 22 -154 72 -183 124 -21 37 -21 46
-14 160 10 165 8 202 -12 260 -25 68 -96 141 -152 156 -40 10 -62 9 -114 -6
-16 -5 -17 -3 -7 16 31 59 132 78 205 39z m2010 -199 c14 -5 49 -32 78 -59 29
-27 95 -72 147 -100 113 -62 128 -74 151 -126 30 -68 53 -232 38 -271 -7 -17
-8 -17 -8 -1 -1 24 -77 201 -106 247 -45 71 -219 200 -299 221 -22 6 -59 8
-81 4 -79 -13 -133 -16 -139 -6 -8 13 68 65 124 84 54 19 61 20 95 7z m-696
-46 c114 -20 158 -40 178 -78 21 -39 23 -50 24 -113 0 -44 -45 -274 -57 -295
-10 -16 -19 -132 -18 -233 1 -132 18 -201 103 -413 95 -236 111 -297 116 -442
2 -72 -11 -199 -29 -275 -8 -36 -46 -118 -52 -112 -3 3 -7 50 -9 105 -6 190
-51 294 -225 517 -45 58 -180 253 -180 260 0 2 -17 34 -39 72 -30 54 -69 147
-76 183 -8 38 -19 98 -20 110 -23 190 -27 551 -7 618 25 84 87 125 172 115 19
-3 73 -11 119 -19z m-1486 -50 c42 -12 76 -57 117 -153 26 -63 57 -116 88
-151 l47 -55 -40 31 c-82 65 -133 122 -150 170 -34 92 -60 116 -155 141 l-35
10 35 10 c35 10 53 10 93 -3z m1926 -10 l26 -15 -25 7 c-52 15 -105 9 -163
-20 -32 -15 -61 -26 -64 -22 -13 12 10 38 49 56 49 22 134 19 177 -6z m351
-58 c138 -83 223 -183 265 -315 7 -23 5 -22 -40 10 -64 46 -96 85 -141 170
-44 84 -80 113 -188 155 -79 30 -91 40 -53 46 29 5 56 -6 157 -66z m-377 35
c17 -6 16 -9 -8 -34 -28 -27 -69 -43 -140 -53 -35 -5 -41 -3 -42 12 -1 14 17
27 70 51 74 34 89 37 120 24z m251 -31 c119 -47 147 -71 210 -179 44 -77 87
-123 159 -171 40 -27 55 -56 38 -73 -15 -15 -14 -30 1 -21 8 5 9 2 5 -11 -7
-16 -6 -16 17 -2 30 20 37 13 91 -93 22 -41 65 -124 98 -185 132 -250 135
-259 103 -382 -35 -135 -13 -202 171 -521 33 -59 56 -111 60 -139 l6 -46 -44
7 c-119 19 -123 19 -188 -8 -89 -36 -115 -34 -138 9 -9 14 -8 26 3 48 9 16 14
33 12 39 -2 6 -12 -6 -22 -26 -22 -47 -15 -81 23 -100 15 -8 41 -32 56 -53 51
-67 126 -141 157 -154 l29 -12 -106 -57 c-58 -31 -128 -63 -155 -70 -28 -8
-50 -17 -50 -22 0 -8 24 -10 160 -13 102 -2 100 -1 100 -34 0 -33 -18 -51 -58
-57 -21 -4 -42 4 -80 31 -57 39 -67 42 -58 19 8 -21 -31 -9 -61 19 -28 25 -29
46 -2 98 31 61 4 45 -64 -40 -66 -80 -101 -103 -168 -107 -81 -4 -177 60 -180
122 -1 13 -2 32 -2 42 0 9 3 58 7 109 14 162 -34 252 -169 314 -75 35 -123 46
-201 45 l-62 -1 2 145 c0 80 -2 163 -7 185 -4 22 -10 54 -13 70 -3 17 -17 63
-30 104 -13 40 -24 75 -24 77 0 2 9 4 20 4 11 0 30 10 41 21 18 18 21 29 16
76 -5 48 -3 56 19 76 21 20 23 27 15 51 -9 22 -7 31 7 47 16 17 17 25 8 62
-15 57 -41 95 -70 103 -17 4 -25 14 -29 37 -4 32 1 43 41 79 12 12 22 29 22
39 0 10 12 21 30 28 17 5 30 15 30 20 0 7 26 11 64 11 34 0 77 5 94 11 24 8
37 7 61 -6 38 -19 31 -18 64 -6 22 9 35 7 59 -5 24 -13 45 -14 97 -8 66 7 91
10 144 12 26 2 40 20 15 19 -64 -2 -83 5 -119 43 -21 22 -71 89 -110 150 -65
98 -79 113 -125 136 -62 30 -134 33 -237 9 -169 -39 -223 -45 -230 -23 -5 15
27 34 60 36 58 4 105 22 138 53 40 37 83 59 118 59 16 0 75 -18 131 -40z
m-2200 -70 c28 -17 92 -70 141 -116 165 -157 228 -197 355 -230 128 -32 245
-2 420 110 112 72 181 95 258 88 27 -3 32 -7 32 -30 0 -24 -5 -29 -51 -39 -28
-7 -110 -44 -181 -82 -150 -80 -226 -103 -353 -104 -203 -2 -296 31 -392 140
-83 95 -145 153 -203 192 -65 44 -149 81 -190 84 -36 2 -37 5 -7 17 38 17 116
3 171 -30z m2187 -29 c46 -15 83 -55 157 -166 32 -49 77 -107 98 -128 l39 -39
-35 3 c-19 2 -41 8 -49 13 -8 6 -16 10 -18 8 -14 -12 -79 48 -121 110 -27 40
-60 83 -73 95 -40 36 -98 55 -164 53 -33 -1 -67 -2 -75 -2 -14 0 -80 -15 -167
-38 -28 -7 -33 -5 -33 10 0 24 13 31 59 37 20 2 83 15 141 28 157 36 178 37
241 16z m-78 -82 c48 -13 83 -46 131 -124 44 -69 64 -89 124 -116 50 -24 54
-33 10 -24 -46 10 -93 40 -164 106 -34 32 -77 65 -95 75 -38 20 -145 27 -224
14 -152 -24 -167 -24 -158 8 11 44 281 88 376 61z m-5 -99 c20 -10 66 -46 101
-79 53 -49 62 -61 48 -67 -24 -9 -71 12 -140 63 -94 69 -147 74 -332 32 -64
-14 -73 -12 -68 15 5 25 21 32 83 35 19 1 58 5 85 10 94 16 183 13 223 -9z
m-897 -37 c0 -10 2 -29 3 -41 3 -27 -3 -31 -60 -35 -28 -2 -72 -20 -130 -54
-123 -70 -331 -131 -439 -127 -152 5 -249 51 -310 147 l-18 28 49 -30 c70 -43
161 -64 279 -65 181 -1 278 26 427 120 49 31 147 72 176 73 14 1 22 -5 23 -16z
m810 -13 c19 -5 57 -25 83 -44 55 -39 48 -46 -47 -46 -41 0 -66 5 -78 16 -39
35 -157 50 -184 23 -7 -7 8 -9 45 -5 92 9 167 -44 97 -68 -20 -7 -34 -7 -49 3
-26 16 -134 28 -125 14 4 -6 30 -13 59 -17 58 -8 78 -20 78 -46 0 -25 -21 -31
-44 -11 -13 12 -38 16 -93 16 l-74 0 6 60 c4 33 10 63 14 66 6 6 105 27 171
36 19 3 37 7 39 9 8 7 66 4 102 -6z m-1905 -130 c33 -61 66 -93 129 -125 l50
-25 -40 0 c-22 -1 -59 -3 -83 -7 -24 -3 -55 0 -70 6 -66 28 -104 160 -67 232
27 52 39 54 47 8 4 -22 19 -62 34 -89z m1093 43 c5 -10 9 -29 9 -43 l0 -25
-102 2 c-55 1 -103 2 -106 3 -11 1 88 54 125 66 54 17 63 17 74 -3z m-1482
-204 c100 -49 192 -54 373 -24 121 20 231 25 313 12 79 -12 97 -25 60 -44 -22
-11 -36 -12 -77 -2 -54 13 -184 7 -231 -11 -142 -54 -349 -64 -434 -20 -56 28
-108 83 -133 138 -36 80 -30 86 28 28 31 -30 76 -65 101 -77z m2107 101 c30
-11 34 -35 8 -49 -16 -9 -98 -16 -144 -12 -22 1 -22 58 1 64 31 9 110 7 135
-3z m-657 -67 c4 -10 -47 -37 -97 -52 -32 -10 -176 -8 -225 3 -11 2 -31 5 -45
6 -46 3 51 39 126 47 87 10 238 7 241 -4z m54 -20 c0 -16 8 -59 18 -98 14 -51
16 -72 7 -78 -14 -10 -150 -3 -234 12 -35 7 -104 25 -153 41 -160 54 -235 38
-356 -73 -130 -120 -273 -225 -415 -306 -131 -74 -304 -89 -421 -37 -94 43
-206 161 -222 236 l-7 34 42 -49 c63 -75 129 -131 193 -166 101 -54 241 -45
354 23 28 17 111 89 183 159 152 148 237 210 336 244 60 21 84 24 165 20 52
-2 112 -7 134 -10 138 -23 264 -6 323 43 46 38 52 39 53 5z m593 1 c9 -3 16
-12 16 -19 0 -11 -32 -13 -147 -6 -7 1 -13 8 -13 16 0 12 14 15 64 15 35 0 71
-3 80 -6z m62 -70 c19 -9 34 -20 34 -24 0 -5 3 -16 6 -24 5 -14 2 -15 -19 -7
-27 10 -163 27 -186 22 -16 -3 -31 16 -31 42 0 16 8 17 81 13 44 -3 96 -13
115 -22z m-1066 -54 c11 -7 2 -10 -35 -10 -27 -1 -83 -7 -122 -14 -40 -7 -73
-11 -73 -9 0 2 18 12 40 22 45 20 166 27 190 11z m1010 -5 c85 -13 110 -25
110 -50 0 -30 -25 -38 -77 -27 -22 5 -63 8 -92 7 -47 -2 -54 1 -62 22 -20 52
-13 62 39 57 26 -2 63 -6 82 -9z m-953 -29 c28 -3 57 -8 65 -11 36 -14 211
-33 270 -30 52 3 68 1 72 -11 12 -31 -109 -54 -191 -35 -45 10 -79 17 -148 27
-16 3 -65 5 -107 5 -61 0 -90 -5 -140 -26 -65 -28 -96 -37 -183 -53 -27 -6
-61 -13 -75 -17 -18 -6 -8 8 40 53 52 49 77 64 125 77 57 16 189 34 210 29 6
-2 33 -5 62 -8z m-737 -64 c100 -36 95 -31 64 -63 -15 -16 -30 -29 -33 -29 -4
0 -44 23 -91 50 -47 28 -93 50 -102 50 -9 0 -19 4 -23 10 -10 16 126 3 185
-18z m1747 -7 c30 -13 52 -49 38 -63 -4 -4 -30 -6 -58 -5 -125 3 -129 5 -141
56 l-7 28 68 -2 c37 -1 82 -7 100 -14z m-887 -20 c19 -2 57 -9 83 -15 68 -14
129 -12 170 5 20 8 39 15 41 15 3 0 15 -18 26 -40 l20 -39 -21 -12 c-23 -12
-121 -5 -165 12 -85 32 -231 45 -331 29 -89 -14 -165 -50 -224 -105 -50 -46
-56 -49 -83 -39 -14 5 -13 12 11 43 54 71 108 110 195 141 42 15 72 18 148 15
52 -2 111 -7 130 -10z m-1289 -54 c20 -6 45 -14 55 -16 91 -23 151 -32 219
-34 44 -1 89 -4 100 -6 11 -2 24 -4 29 -4 14 -1 -35 -51 -64 -66 -14 -7 -41
-12 -60 -10 -19 2 -68 6 -108 9 -129 12 -237 69 -278 147 -21 41 -18 42 29 16
23 -13 58 -29 78 -36z m836 -34 c-18 -18 -41 -45 -52 -60 l-20 -28 -53 16 -54
16 29 25 c35 30 79 51 123 59 19 3 36 8 39 10 2 3 7 2 11 0 5 -3 -6 -20 -23
-38z m557 3 c83 -19 131 -28 166 -29 12 -1 12 -4 -2 -17 -18 -19 -76 -21 -158
-5 -30 5 -93 8 -140 7 -98 -3 -170 -31 -232 -90 -34 -32 -40 -34 -70 -26 -49
14 -88 32 -88 39 0 18 81 83 132 105 113 50 227 55 392 16z m724 19 c34 -1 62
-5 62 -9 0 -18 -43 -43 -76 -44 -33 -1 -39 3 -51 32 -8 19 -10 31 -5 28 4 -2
36 -6 70 -7z m-1454 -44 c-28 -22 -40 -18 -13 4 13 11 26 17 28 15 3 -2 -4
-11 -15 -19z m999 -18 c14 -22 14 -24 -20 -42 -50 -27 -150 -141 -184 -210
-39 -79 -58 -176 -53 -272 5 -123 25 -191 83 -280 72 -111 170 -172 287 -179
99 -5 158 21 233 103 56 60 61 63 61 39 0 -71 -49 -124 -164 -176 -113 -51
-226 -44 -327 20 -67 44 -119 111 -158 204 -95 228 -83 449 35 634 48 75 157
182 185 182 4 0 14 -10 22 -23z m521 -27 c-4 -65 -61 -84 -89 -29 -9 17 -15
32 -13 34 7 6 93 31 99 29 3 -2 4 -17 3 -34z m-729 -6 c28 -4 52 -8 54 -10 2
-2 -4 -13 -15 -25 -16 -18 -25 -20 -89 -14 -38 4 -72 7 -75 8 -17 4 -95 -16
-150 -39 -93 -38 -112 -42 -139 -32 l-24 9 28 29 c32 34 102 70 155 81 35 8
162 4 255 -7z m-799 -8 c22 -3 87 -21 145 -42 318 -111 347 -116 508 -75 58
15 115 31 125 36 19 8 19 8 -1 -21 -11 -16 -28 -45 -37 -65 -14 -30 -26 -39
-79 -57 -127 -44 -200 -33 -405 59 -125 56 -256 96 -377 115 -38 6 -39 6 -20
21 28 21 77 42 89 38 6 -2 29 -6 52 -9z m1132 -138 c119 -161 192 -267 192
-279 0 -10 -5 -11 -60 -13 -34 -1 -35 -3 -42 -46 -3 -25 -8 -54 -10 -65 -3
-18 2 -20 42 -17 25 1 62 7 84 13 46 13 51 7 62 -66 10 -62 10 -61 1 -112 -10
-56 -70 -131 -138 -168 -46 -26 -64 -30 -129 -30 -62 0 -85 5 -131 28 -106 51
-189 169 -223 314 -7 34 -12 64 -9 66 2 3 26 -4 51 -16 60 -26 230 -32 222 -7
-3 8 -5 39 -4 68 1 51 0 52 -30 53 -151 3 -234 44 -220 108 19 88 124 231 205
280 19 12 35 21 37 21 1 0 46 -60 100 -132z m-390 83 c75 -3 -97 -57 -208 -65
l-65 -5 64 30 c67 32 131 49 166 43 11 -1 30 -3 43 -3z m-719 -42 c17 -6 31
-14 31 -19 0 -19 -125 -141 -163 -159 -44 -21 -111 -28 -121 -12 -3 4 2 8 12
8 62 0 82 19 127 117 38 83 47 88 114 65z m229 -97 c1 -4 -11 -16 -28 -25 -16
-10 -64 -53 -107 -95 -98 -96 -105 -102 -178 -133 -43 -19 -81 -27 -132 -28
-117 -4 -181 18 -343 118 -89 54 -177 100 -195 101 -3 0 -11 0 -17 0 -7 0 -5
5 5 11 26 15 101 4 155 -24 26 -13 94 -48 152 -78 l105 -54 95 0 c82 0 103 4
150 26 69 33 109 71 166 159 24 38 50 70 56 72 14 5 111 -37 116 -50z m76 -27
c20 -8 36 -17 36 -20 0 -2 -17 -13 -37 -23 -78 -37 -130 -73 -142 -96 -9 -16
-25 -25 -50 -29 -20 -3 -45 -8 -56 -12 -11 -4 26 38 82 94 56 56 108 101 116
101 8 0 31 -7 51 -15z m386 -12 c0 -17 -26 -82 -39 -96 -14 -17 -51 -24 -178
-31 -47 -3 -97 -12 -117 -21 -27 -13 -48 -15 -88 -10 -94 13 -98 17 -45 54 26
17 70 43 99 56 47 22 63 24 153 20 81 -3 110 0 150 15 58 21 65 23 65 13z
m-1417 -136 c14 -42 3 -59 -35 -55 -29 3 -33 6 -31 31 4 59 49 75 66 24z
m1349 -19 c-21 -21 -89 -36 -154 -33 -93 3 -98 4 -98 14 0 12 53 20 159 26 46
3 86 7 89 10 3 3 8 3 11 0 2 -3 -1 -11 -7 -17z m33 -34 c-3 -61 -74 -96 -200
-97 -69 -1 -191 9 -217 18 -36 12 -141 13 -185 2 -27 -7 -87 -36 -134 -64
-110 -66 -154 -84 -191 -78 -35 6 -82 35 -58 35 8 0 89 36 180 81 263 128 295
135 473 98 127 -26 235 -23 293 9 21 11 39 21 39 21 1 1 0 -11 0 -25z m-1211
-53 c33 -17 91 -57 127 -89 134 -119 199 -124 351 -25 36 23 79 48 95 54 77
31 128 28 80 -4 -12 -8 -57 -49 -100 -90 -89 -85 -135 -104 -236 -94 -71 6
-122 31 -220 109 -132 106 -187 122 -353 104 -132 -14 -126 10 12 50 99 29
164 25 244 -15z m1217 -58 c0 -21 3 -51 5 -66 5 -28 4 -29 -28 -20 -90 22
-259 5 -417 -44 -241 -75 -278 -84 -346 -88 -67 -4 -68 -4 -19 5 76 14 176 59
305 137 l115 70 121 -4 c117 -3 210 12 238 38 17 17 25 9 26 -28z m-1250 -66
c24 -14 65 -31 90 -37 25 -6 59 -23 75 -37 35 -30 97 -63 121 -64 10 0 13 -3
7 -5 -7 -3 -65 8 -129 25 -124 31 -172 57 -272 145 l-47 41 30 6 c23 5 34 1
55 -21 15 -16 46 -39 70 -53z m828 69 c-8 -7 -135 -83 -194 -115 l-60 -33 68
66 c37 37 77 71 90 76 21 8 105 14 96 6z m-816 -27 c23 -12 56 -33 72 -47 29
-24 29 -25 5 -17 -36 11 -71 31 -105 59 -37 31 -27 33 28 5z m1187 -76 c19 -3
42 -5 51 -4 12 1 20 -11 28 -43 17 -67 15 -68 -40 -40 -34 18 -71 28 -117 32
-73 5 -121 -6 -308 -72 -55 -19 -123 -40 -150 -46 -27 -7 -60 -14 -74 -18 -62
-15 -383 -3 -413 15 -4 2 -49 6 -100 8 -181 8 -293 -39 -441 -183 -44 -43 -57
-51 -51 -33 11 35 178 243 212 262 66 39 188 55 278 36 17 -4 46 -9 65 -12 19
-3 43 -8 52 -11 9 -3 25 -7 35 -9 10 -2 38 -8 63 -14 100 -23 219 -10 393 45
197 61 210 65 312 83 96 17 129 18 205 4z m49 -111 l45 -20 -35 -6 c-19 -3
-58 -8 -88 -11 -29 -3 -77 -15 -105 -26 -28 -10 -64 -19 -81 -19 -87 0 -196
-72 -216 -143 -7 -23 -17 -47 -23 -54 -14 -15 -73 -26 -80 -14 -9 15 42 105
84 147 58 59 121 89 245 119 61 15 123 35 139 45 31 19 34 19 115 -18z m-892
-8 c-3 -3 -12 -4 -19 -1 -8 3 -5 6 6 6 11 1 17 -2 13 -5z m963 -44 c10 -19 8
-20 -37 -21 -97 -1 -150 -25 -212 -95 -45 -52 -63 -101 -77 -214 -15 -126 -43
-190 -105 -244 -64 -55 -161 -61 -251 -17 -24 11 -86 54 -138 96 -52 41 -114
84 -137 96 -24 11 -43 22 -43 24 0 7 77 -18 115 -38 22 -11 72 -41 110 -67
101 -68 128 -80 181 -80 93 0 175 67 203 165 6 22 18 86 26 143 27 187 56 220
222 251 129 24 131 24 143 1z m59 -89 c47 -56 123 -110 176 -128 17 -5 35 -20
42 -34 7 -13 24 -34 39 -45 l27 -22 -25 -72 c-17 -47 -24 -86 -21 -109 5 -38
5 -41 0 -106 -2 -22 -1 -51 3 -65 4 -14 1 -40 -7 -59 -8 -19 -14 -59 -13 -90
1 -31 1 -101 0 -156 -3 -136 -3 -183 0 -230 3 -63 -12 -173 -24 -178 -6 -3
-49 5 -96 18 -363 94 -648 259 -883 513 l-48 52 56 55 c33 33 58 68 62 86 4
24 9 28 25 23 38 -12 118 -5 160 14 93 41 135 116 163 289 19 116 38 166 79
211 38 41 75 62 141 78 79 19 93 15 144 -45z m-393 20 c-9 -10 -16 -22 -16
-28 0 -16 -41 -48 -113 -86 -37 -21 -69 -37 -71 -37 -8 0 8 57 22 78 25 38
163 109 185 95 5 -3 1 -13 -7 -22z m-304 -73 c-17 -30 -31 -34 -142 -43 -36
-3 -87 -12 -115 -19 -60 -17 -131 -24 -129 -13 4 20 48 60 82 74 23 10 85 18
167 22 72 3 135 7 142 7 8 0 7 -8 -5 -28z m261 -55 c-6 -48 -13 -55 -98 -88
-102 -40 -221 -45 -352 -15 -131 31 -224 31 -284 2 -58 -28 -85 -76 -104 -179
-17 -100 -36 -144 -80 -188 -45 -44 -60 -45 -35 -2 18 31 34 81 44 140 35 202
129 280 331 278 50 0 106 -3 125 -6 19 -4 78 -8 130 -10 108 -5 155 8 254 69
33 20 63 36 67 36 4 0 5 -17 2 -37z m-299 -15 c-3 -13 -8 -25 -11 -27 -4 -5
-65 -3 -98 4 -11 2 -36 4 -54 4 -65 2 -18 21 65 27 43 3 81 8 83 10 12 12 21
1 15 -18z m1106 -33 c0 -7 -8 -23 -18 -35 -24 -30 -82 -20 -104 18 l-16 27 69
1 c50 1 69 -2 69 -11z m-821 -72 c-13 -68 -26 -103 -56 -146 -29 -41 -87 -77
-126 -77 -24 0 -24 1 -12 38 7 20 15 63 18 96 3 32 9 62 14 66 4 4 31 15 59
24 28 9 60 23 70 31 35 26 42 19 33 -32z m-618 -4 c-10 -18 -24 -29 -38 -29
-12 0 -29 -3 -37 -6 -13 -5 -15 -2 -8 17 10 27 42 47 76 47 23 0 23 -1 7 -29z
m154 7 c26 -8 72 -18 101 -22 l53 -6 -6 -32 c-7 -35 -31 -96 -38 -96 -2 0 -21
12 -42 26 -55 37 -122 70 -170 83 -40 11 -42 13 -31 36 13 30 57 33 133 11z
m271 -79 c-8 -66 -21 -114 -36 -132 -13 -16 -51 -4 -84 26 -16 15 -17 22 -8
46 6 15 16 46 21 69 11 40 11 40 62 43 l51 2 -6 -54z m-452 -3 c9 -8 16 -24
16 -33 0 -26 34 -66 86 -102 24 -16 44 -34 44 -39 0 -21 -67 -9 -111 18 -55
36 -74 57 -95 107 -20 48 -20 47 3 56 28 12 40 10 57 -7z m1440 -121 c7 -18
-9 -33 -36 -33 -23 0 -32 18 -18 35 17 20 46 19 54 -2z m-1106 -88 c17 -10 32
-23 32 -27 0 -66 -154 -193 -246 -201 -34 -4 -188 39 -159 44 6 1 26 3 45 5
110 11 184 61 234 157 31 59 32 60 94 22z m1127 -86 c14 -13 -9 -31 -40 -31
-39 0 -55 20 -31 38 20 14 51 11 71 -7z m-35 -184 c26 -31 -21 -66 -56 -41
-13 10 -14 17 -5 34 14 25 43 29 61 7z m17 -171 c7 -18 -14 -44 -35 -44 -20 0
-52 29 -52 47 0 34 73 32 87 -3z m-6 -170 c16 -20 1 -48 -29 -52 -26 -4 -56
36 -40 55 14 18 53 16 69 -3z"/>
<path d="M2064 3679 c-32 -11 -40 -30 -54 -114 -15 -93 -19 -358 -7 -460 10
-84 62 -246 111 -344 20 -38 94 -157 164 -263 187 -281 236 -370 257 -465 10
-47 23 -49 31 -6 27 138 -21 330 -149 588 -61 124 -97 218 -107 279 -12 71 -5
246 14 336 22 106 25 120 30 138 3 9 8 35 12 57 3 22 8 43 11 47 9 16 4 127
-7 147 -19 37 -107 63 -226 66 -34 1 -70 -2 -80 -6z"/>
<path d="M3200 2603 c-14 -2 -57 -11 -96 -19 -72 -16 -115 -18 -256 -14 -65 2
-84 -2 -120 -22 -61 -33 -91 -82 -84 -133 8 -48 32 -84 74 -108 23 -14 58 -19
147 -22 131 -4 133 -5 235 -53 93 -43 152 -50 222 -27 61 20 75 23 104 24 28
1 64 31 68 56 2 11 -5 36 -14 55 -10 20 -21 64 -25 99 -7 74 -16 98 -44 128
-34 36 -121 51 -211 36z m55 -122 c6 -1 -10 -10 -35 -20 -25 -9 -69 -34 -99
-54 -72 -50 -85 -50 -55 3 33 56 108 84 189 71z m71 -52 c21 -18 17 -25 -18
-27 -18 -2 -69 -14 -113 -27 -45 -14 -92 -25 -106 -25 -19 0 -21 -2 -9 -10 25
-17 81 -29 160 -36 41 -3 77 -8 80 -11 3 -3 -8 -16 -23 -29 -33 -28 -75 -31
-120 -9 -43 21 -125 95 -111 101 6 3 39 23 74 46 35 22 75 44 89 48 28 7 75
-2 97 -21z"/>
<path d="M2174 2184 c-44 -22 -58 -56 -39 -100 30 -72 133 -63 148 14 7 35
-17 80 -49 92 -30 12 -23 13 -60 -6z m78 -21 c22 -20 23 -70 1 -95 -20 -22
-70 -23 -95 -1 -26 23 -24 78 4 97 29 21 67 20 90 -1z"/>
</g>
</svg>
